<svg xmlns="http://www.w3.org/2000/svg" version="1.1" xmlns:xlink="http://www.w3.org/1999/xlink" xmlns:svgjs="http://svgjs.dev/svgjs" width="1440" height="560" preserveAspectRatio="none" viewBox="0 0 1440 560"><g mask="url(&quot;#SvgjsMask1000&quot;)" fill="none"><rect width="1440" height="560" x="0" y="0" fill="#0e2a47"></rect><path d="M-44.07 500.28L-44.07 500.28" stroke="#132e65" stroke-width="1.5"></path><path d="M-44.07 500.28L70.13 540.94" stroke="#132e65" stroke-width="1.5"></path><path d="M-44.07 500.28L-106.4 643.83" stroke="#132e65" stroke-width="1.5"></path><path d="M-44.07 500.28L95.93 387.68" stroke="#132e65" stroke-width="1.5"></path><path d="M-44.07 500.28L74.57 647.89" stroke="#132e65" stroke-width="1.5"></path><path d="M-44.07 500.28L222.72 647.79" stroke="#132e65" stroke-width="1.5"></path><path d="M-106.4 643.83L-106.4 643.83" stroke="#132e65" stroke-width="1.5"></path><path d="M-106.4 643.83L74.57 647.89" stroke="#132e65" stroke-width="1.5"></path><path d="M-106.4 643.83L70.13 540.94" stroke="#132e65" stroke-width="1.5"></path><path d="M-106.4 643.83L95.93 387.68" stroke="#132e65" stroke-width="1.5"></path><path d="M-106.4 643.83L222.72 647.79" stroke="#132e65" stroke-width="1.5"></path><path d="M-106.4 643.83L251.42 364.17" stroke="#132e65" stroke-width="1.5"></path><path d="M95.93 387.68L95.93 387.68" stroke="#132e65" stroke-width="1.5"></path><path d="M95.93 387.68L70.13 540.94" stroke="#132e65" stroke-width="1.5"></path><path d="M95.93 387.68L251.42 364.17" stroke="#132e65" stroke-width="1.5"></path><path d="M70.13 540.94L70.13 540.94" stroke="#132e65" stroke-width="1.5"></path><path d="M70.13 540.94L74.57 647.89" stroke="#132e65" stroke-width="1.5"></path><path d="M74.57 647.89L74.57 647.89" stroke="#132e65" stroke-width="1.5"></path><path d="M74.57 647.89L222.72 647.79" stroke="#132e65" stroke-width="1.5"></path><path d="M74.57 647.89L95.93 387.68" stroke="#132e65" stroke-width="1.5"></path><path d="M74.57 647.89L378.92 661.41" stroke="#132e65" stroke-width="1.5"></path><path d="M251.42 364.17L251.42 364.17" stroke="#132e65" stroke-width="1.5"></path><path d="M251.42 364.17L411.41 376.09" stroke="#132e65" stroke-width="1.5"></path><path d="M251.42 364.17L404.6 514.56" stroke="#132e65" stroke-width="1.5"></path><path d="M251.42 364.17L70.13 540.94" stroke="#132e65" stroke-width="1.5"></path><path d="M222.72 647.79L222.72 647.79" stroke="#132e65" stroke-width="1.5"></path><path d="M222.72 647.79L378.92 661.41" stroke="#132e65" stroke-width="1.5"></path><path d="M222.72 647.79L70.13 540.94" stroke="#132e65" stroke-width="1.5"></path><path d="M222.72 647.79L404.6 514.56" stroke="#132e65" stroke-width="1.5"></path><path d="M222.72 647.79L251.42 364.17" stroke="#132e65" stroke-width="1.5"></path><path d="M222.72 647.79L95.93 387.68" stroke="#132e65" stroke-width="1.5"></path><path d="M411.41 376.09L411.41 376.09" stroke="#132e65" stroke-width="1.5"></path><path d="M411.41 376.09L404.6 514.56" stroke="#132e65" stroke-width="1.5"></path><path d="M411.41 376.09L548.79 406.99" stroke="#132e65" stroke-width="1.5"></path><path d="M411.41 376.09L514.91 547.56" stroke="#132e65" stroke-width="1.5"></path><path d="M404.6 514.56L404.6 514.56" stroke="#132e65" stroke-width="1.5"></path><path d="M404.6 514.56L514.91 547.56" stroke="#132e65" stroke-width="1.5"></path><path d="M404.6 514.56L378.92 661.41" stroke="#132e65" stroke-width="1.5"></path><path d="M378.92 661.41L378.92 661.41" stroke="#132e65" stroke-width="1.5"></path><path d="M378.92 661.41L529.09 702.33" stroke="#132e65" stroke-width="1.5"></path><path d="M378.92 661.41L514.91 547.56" stroke="#132e65" stroke-width="1.5"></path><path d="M548.79 406.99L548.79 406.99" stroke="#132e65" stroke-width="1.5"></path><path d="M548.79 406.99L678.96 350.64" stroke="#132e65" stroke-width="1.5"></path><path d="M548.79 406.99L514.91 547.56" stroke="#132e65" stroke-width="1.5"></path><path d="M548.79 406.99L404.6 514.56" stroke="#132e65" stroke-width="1.5"></path><path d="M548.79 406.99L667.34 551.07" stroke="#132e65" stroke-width="1.5"></path><path d="M514.91 547.56L514.91 547.56" stroke="#132e65" stroke-width="1.5"></path><path d="M529.09 702.33L529.09 702.33" stroke="#132e65" stroke-width="1.5"></path><path d="M529.09 702.33L673.7 672.26" stroke="#132e65" stroke-width="1.5"></path><path d="M529.09 702.33L514.91 547.56" stroke="#132e65" stroke-width="1.5"></path><path d="M529.09 702.33L667.34 551.07" stroke="#132e65" stroke-width="1.5"></path><path d="M709.87 250.03L709.87 250.03" stroke="#132e65" stroke-width="1.5"></path><path d="M709.87 250.03L806.54 210.56" stroke="#132e65" stroke-width="1.5"></path><path d="M709.87 250.03L678.96 350.64" stroke="#132e65" stroke-width="1.5"></path><path d="M709.87 250.03L829.64 363.87" stroke="#132e65" stroke-width="1.5"></path><path d="M709.87 250.03L548.79 406.99" stroke="#132e65" stroke-width="1.5"></path><path d="M709.87 250.03L962.69 343.13" stroke="#132e65" stroke-width="1.5"></path><path d="M678.96 350.64L678.96 350.64" stroke="#132e65" stroke-width="1.5"></path><path d="M678.96 350.64L829.64 363.87" stroke="#132e65" stroke-width="1.5"></path><path d="M678.96 350.64L806.54 210.56" stroke="#132e65" stroke-width="1.5"></path><path d="M667.34 551.07L667.34 551.07" stroke="#132e65" stroke-width="1.5"></path><path d="M667.34 551.07L673.7 672.26" stroke="#132e65" stroke-width="1.5"></path><path d="M667.34 551.07L789.61 520.72" stroke="#132e65" stroke-width="1.5"></path><path d="M667.34 551.07L514.91 547.56" stroke="#132e65" stroke-width="1.5"></path><path d="M667.34 551.07L678.96 350.64" stroke="#132e65" stroke-width="1.5"></path><path d="M673.7 672.26L673.7 672.26" stroke="#132e65" stroke-width="1.5"></path><path d="M673.7 672.26L819.18 691.67" stroke="#132e65" stroke-width="1.5"></path><path d="M673.7 672.26L789.61 520.72" stroke="#132e65" stroke-width="1.5"></path><path d="M673.7 672.26L514.91 547.56" stroke="#132e65" stroke-width="1.5"></path><path d="M673.7 672.26L548.79 406.99" stroke="#132e65" stroke-width="1.5"></path><path d="M806.54 210.56L806.54 210.56" stroke="#132e65" stroke-width="1.5"></path><path d="M806.54 210.56L829.64 363.87" stroke="#132e65" stroke-width="1.5"></path><path d="M806.54 210.56L987.48 253.36" stroke="#132e65" stroke-width="1.5"></path><path d="M806.54 210.56L944.7 70.75" stroke="#132e65" stroke-width="1.5"></path><path d="M806.54 210.56L962.69 343.13" stroke="#132e65" stroke-width="1.5"></path><path d="M829.64 363.87L829.64 363.87" stroke="#132e65" stroke-width="1.5"></path><path d="M829.64 363.87L962.69 343.13" stroke="#132e65" stroke-width="1.5"></path><path d="M789.61 520.72L789.61 520.72" stroke="#132e65" stroke-width="1.5"></path><path d="M789.61 520.72L939.57 533.33" stroke="#132e65" stroke-width="1.5"></path><path d="M819.18 691.67L819.18 691.67" stroke="#132e65" stroke-width="1.5"></path><path d="M819.18 691.67L789.61 520.72" stroke="#132e65" stroke-width="1.5"></path><path d="M819.18 691.67L939.57 533.33" stroke="#132e65" stroke-width="1.5"></path><path d="M819.18 691.67L667.34 551.07" stroke="#132e65" stroke-width="1.5"></path><path d="M819.18 691.67L1089.29 654.61" stroke="#132e65" stroke-width="1.5"></path><path d="M819.18 691.67L529.09 702.33" stroke="#132e65" stroke-width="1.5"></path><path d="M1000.8 -43.53L1000.8 -43.53" stroke="#132e65" stroke-width="1.5"></path><path d="M1000.8 -43.53L944.7 70.75" stroke="#132e65" stroke-width="1.5"></path><path d="M1000.8 -43.53L1118.42 -110.48" stroke="#132e65" stroke-width="1.5"></path><path d="M1000.8 -43.53L1156.77 93.65" stroke="#132e65" stroke-width="1.5"></path><path d="M1000.8 -43.53L1238.8 -80.24" stroke="#132e65" stroke-width="1.5"></path><path d="M1000.8 -43.53L987.48 253.36" stroke="#132e65" stroke-width="1.5"></path><path d="M1000.8 -43.53L1280.95 74.78" stroke="#132e65" stroke-width="1.5"></path><path d="M944.7 70.75L944.7 70.75" stroke="#132e65" stroke-width="1.5"></path><path d="M944.7 70.75L987.48 253.36" stroke="#132e65" stroke-width="1.5"></path><path d="M944.7 70.75L1156.77 93.65" stroke="#132e65" stroke-width="1.5"></path><path d="M944.7 70.75L1112.33 251.56" stroke="#132e65" stroke-width="1.5"></path><path d="M987.48 253.36L987.48 253.36" stroke="#132e65" stroke-width="1.5"></path><path d="M987.48 253.36L962.69 343.13" stroke="#132e65" stroke-width="1.5"></path><path d="M987.48 253.36L1112.33 251.56" stroke="#132e65" stroke-width="1.5"></path><path d="M987.48 253.36L1109.99 392.04" stroke="#132e65" stroke-width="1.5"></path><path d="M962.69 343.13L962.69 343.13" stroke="#132e65" stroke-width="1.5"></path><path d="M962.69 343.13L1109.99 392.04" stroke="#132e65" stroke-width="1.5"></path><path d="M939.57 533.33L939.57 533.33" stroke="#132e65" stroke-width="1.5"></path><path d="M939.57 533.33L962.69 343.13" stroke="#132e65" stroke-width="1.5"></path><path d="M1118.42 -110.48L1118.42 -110.48" stroke="#132e65" stroke-width="1.5"></path><path d="M1118.42 -110.48L1238.8 -80.24" stroke="#132e65" stroke-width="1.5"></path><path d="M1118.42 -110.48L1156.77 93.65" stroke="#132e65" stroke-width="1.5"></path><path d="M1156.77 93.65L1156.77 93.65" stroke="#132e65" stroke-width="1.5"></path><path d="M1156.77 93.65L1280.95 74.78" stroke="#132e65" stroke-width="1.5"></path><path d="M1156.77 93.65L1112.33 251.56" stroke="#132e65" stroke-width="1.5"></path><path d="M1156.77 93.65L1284.93 196.78" stroke="#132e65" stroke-width="1.5"></path><path d="M1156.77 93.65L1238.8 -80.24" stroke="#132e65" stroke-width="1.5"></path><path d="M1112.33 251.56L1112.33 251.56" stroke="#132e65" stroke-width="1.5"></path><path d="M1112.33 251.56L1109.99 392.04" stroke="#132e65" stroke-width="1.5"></path><path d="M1112.33 251.56L962.69 343.13" stroke="#132e65" stroke-width="1.5"></path><path d="M1109.99 392.04L1109.99 392.04" stroke="#132e65" stroke-width="1.5"></path><path d="M1109.99 392.04L1262.98 389.3" stroke="#132e65" stroke-width="1.5"></path><path d="M1159 561.64L1159 561.64" stroke="#132e65" stroke-width="1.5"></path><path d="M1159 561.64L1089.29 654.61" stroke="#132e65" stroke-width="1.5"></path><path d="M1089.29 654.61L1089.29 654.61" stroke="#132e65" stroke-width="1.5"></path><path d="M1089.29 654.61L939.57 533.33" stroke="#132e65" stroke-width="1.5"></path><path d="M1238.8 -80.24L1238.8 -80.24" stroke="#132e65" stroke-width="1.5"></path><path d="M1238.8 -80.24L1280.95 74.78" stroke="#132e65" stroke-width="1.5"></path><path d="M1238.8 -80.24L1410.97 -77.23" stroke="#132e65" stroke-width="1.5"></path><path d="M1280.95 74.78L1280.95 74.78" stroke="#132e65" stroke-width="1.5"></path><path d="M1280.95 74.78L1284.93 196.78" stroke="#132e65" stroke-width="1.5"></path><path d="M1280.95 74.78L1409.63 214.01" stroke="#132e65" stroke-width="1.5"></path><path d="M1284.93 196.78L1284.93 196.78" stroke="#132e65" stroke-width="1.5"></path><path d="M1284.93 196.78L1409.63 214.01" stroke="#132e65" stroke-width="1.5"></path><path d="M1284.93 196.78L1112.33 251.56" stroke="#132e65" stroke-width="1.5"></path><path d="M1284.93 196.78L1262.98 389.3" stroke="#132e65" stroke-width="1.5"></path><path d="M1284.93 196.78L1402.13 370.32" stroke="#132e65" stroke-width="1.5"></path><path d="M1262.98 389.3L1262.98 389.3" stroke="#132e65" stroke-width="1.5"></path><path d="M1262.98 389.3L1402.13 370.32" stroke="#132e65" stroke-width="1.5"></path><path d="M1309.82 548.21L1309.82 548.21" stroke="#132e65" stroke-width="1.5"></path><path d="M1309.82 548.21L1424.95 555.84" stroke="#132e65" stroke-width="1.5"></path><path d="M1309.82 548.21L1295.83 665.93" stroke="#132e65" stroke-width="1.5"></path><path d="M1309.82 548.21L1159 561.64" stroke="#132e65" stroke-width="1.5"></path><path d="M1309.82 548.21L1262.98 389.3" stroke="#132e65" stroke-width="1.5"></path><path d="M1309.82 548.21L1402.13 370.32" stroke="#132e65" stroke-width="1.5"></path><path d="M1309.82 548.21L1089.29 654.61" stroke="#132e65" stroke-width="1.5"></path><path d="M1295.83 665.93L1295.83 665.93" stroke="#132e65" stroke-width="1.5"></path><path d="M1295.83 665.93L1424.95 555.84" stroke="#132e65" stroke-width="1.5"></path><path d="M1295.83 665.93L1159 561.64" stroke="#132e65" stroke-width="1.5"></path><path d="M1410.97 -77.23L1410.97 -77.23" stroke="#132e65" stroke-width="1.5"></path><path d="M1410.97 -77.23L1555.14 -46.22" stroke="#132e65" stroke-width="1.5"></path><path d="M1410.97 -77.23L1280.95 74.78" stroke="#132e65" stroke-width="1.5"></path><path d="M1410.97 -77.23L1612.06 57.73" stroke="#132e65" stroke-width="1.5"></path><path d="M1410.97 -77.23L1409.63 214.01" stroke="#132e65" stroke-width="1.5"></path><path d="M1410.97 -77.23L1118.42 -110.48" stroke="#132e65" stroke-width="1.5"></path><path d="M1409.63 214.01L1409.63 214.01" stroke="#132e65" stroke-width="1.5"></path><path d="M1409.63 214.01L1402.13 370.32" stroke="#132e65" stroke-width="1.5"></path><path d="M1409.63 214.01L1603.73 249.47" stroke="#132e65" stroke-width="1.5"></path><path d="M1409.63 214.01L1262.98 389.3" stroke="#132e65" stroke-width="1.5"></path><path d="M1409.63 214.01L1597.18 376.23" stroke="#132e65" stroke-width="1.5"></path><path d="M1402.13 370.32L1402.13 370.32" stroke="#132e65" stroke-width="1.5"></path><path d="M1424.95 555.84L1424.95 555.84" stroke="#132e65" stroke-width="1.5"></path><path d="M1424.95 555.84L1541.34 662.16" stroke="#132e65" stroke-width="1.5"></path><path d="M1555.14 -46.22L1555.14 -46.22" stroke="#132e65" stroke-width="1.5"></path><path d="M1555.14 -46.22L1612.06 57.73" stroke="#132e65" stroke-width="1.5"></path><path d="M1612.06 57.73L1612.06 57.73" stroke="#132e65" stroke-width="1.5"></path><path d="M1612.06 57.73L1603.73 249.47" stroke="#132e65" stroke-width="1.5"></path><path d="M1612.06 57.73L1409.63 214.01" stroke="#132e65" stroke-width="1.5"></path><path d="M1612.06 57.73L1597.18 376.23" stroke="#132e65" stroke-width="1.5"></path><path d="M1612.06 57.73L1280.95 74.78" stroke="#132e65" stroke-width="1.5"></path><path d="M1603.73 249.47L1603.73 249.47" stroke="#132e65" stroke-width="1.5"></path><path d="M1603.73 249.47L1597.18 376.23" stroke="#132e65" stroke-width="1.5"></path><path d="M1603.73 249.47L1402.13 370.32" stroke="#132e65" stroke-width="1.5"></path><path d="M1603.73 249.47L1605.96 510.7" stroke="#132e65" stroke-width="1.5"></path><path d="M1597.18 376.23L1597.18 376.23" stroke="#132e65" stroke-width="1.5"></path><path d="M1597.18 376.23L1605.96 510.7" stroke="#132e65" stroke-width="1.5"></path><path d="M1605.96 510.7L1605.96 510.7" stroke="#132e65" stroke-width="1.5"></path><path d="M1605.96 510.7L1541.34 662.16" stroke="#132e65" stroke-width="1.5"></path><path d="M1605.96 510.7L1424.95 555.84" stroke="#132e65" stroke-width="1.5"></path><path d="M1605.96 510.7L1402.13 370.32" stroke="#132e65" stroke-width="1.5"></path><path d="M1605.96 510.7L1309.82 548.21" stroke="#132e65" stroke-width="1.5"></path><path d="M1541.34 662.16L1541.34 662.16" stroke="#132e65" stroke-width="1.5"></path><path d="M1541.34 662.16L1295.83 665.93" stroke="#132e65" stroke-width="1.5"></path><circle r="5" cx="-44.07" cy="500.28" fill="#132e65"></circle><circle r="5" cx="-106.4" cy="643.83" fill="#132e65"></circle><circle r="5" cx="95.93" cy="387.68" fill="#132e65"></circle><circle r="5" cx="70.13" cy="540.94" fill="#132e65"></circle><circle r="5" cx="74.57" cy="647.89" fill="#132e65"></circle><circle r="5" cx="251.42" cy="364.17" fill="#132e65"></circle><circle r="5" cx="222.72" cy="647.79" fill="#132e65"></circle><circle r="5" cx="411.41" cy="376.09" fill="#132e65"></circle><circle r="5" cx="404.6" cy="514.56" fill="#132e65"></circle><circle r="5" cx="378.92" cy="661.41" fill="#132e65"></circle><circle r="5" cx="548.79" cy="406.99" fill="#132e65"></circle><circle r="5" cx="514.91" cy="547.56" fill="#132e65"></circle><circle r="5" cx="529.09" cy="702.33" fill="#132e65"></circle><circle r="5" cx="709.87" cy="250.03" fill="#132e65"></circle><circle r="5" cx="678.96" cy="350.64" fill="#132e65"></circle><circle r="5" cx="667.34" cy="551.07" fill="#132e65"></circle><circle r="5" cx="673.7" cy="672.26" fill="#132e65"></circle><circle r="5" cx="806.54" cy="210.56" fill="#132e65"></circle><circle r="5" cx="829.64" cy="363.87" fill="#132e65"></circle><circle r="5" cx="789.61" cy="520.72" fill="#132e65"></circle><circle r="5" cx="819.18" cy="691.67" fill="#132e65"></circle><circle r="5" cx="1000.8" cy="-43.53" fill="#132e65"></circle><circle r="5" cx="944.7" cy="70.75" fill="#132e65"></circle><circle r="5" cx="987.48" cy="253.36" fill="#132e65"></circle><circle r="5" cx="962.69" cy="343.13" fill="#132e65"></circle><circle r="5" cx="939.57" cy="533.33" fill="#132e65"></circle><circle r="5" cx="1118.42" cy="-110.48" fill="#132e65"></circle><circle r="5" cx="1156.77" cy="93.65" fill="#132e65"></circle><circle r="5" cx="1112.33" cy="251.56" fill="#132e65"></circle><circle r="5" cx="1109.99" cy="392.04" fill="#132e65"></circle><circle r="5" cx="1159" cy="561.64" fill="#132e65"></circle><circle r="5" cx="1089.29" cy="654.61" fill="#132e65"></circle><circle r="5" cx="1238.8" cy="-80.24" fill="#132e65"></circle><circle r="5" cx="1280.95" cy="74.78" fill="#132e65"></circle><circle r="5" cx="1284.93" cy="196.78" fill="#132e65"></circle><circle r="5" cx="1262.98" cy="389.3" fill="#132e65"></circle><circle r="5" cx="1309.82" cy="548.21" fill="#132e65"></circle><circle r="5" cx="1295.83" cy="665.93" fill="#132e65"></circle><circle r="5" cx="1410.97" cy="-77.23" fill="#132e65"></circle><circle r="5" cx="1409.63" cy="214.01" fill="#132e65"></circle><circle r="5" cx="1402.13" cy="370.32" fill="#132e65"></circle><circle r="5" cx="1424.95" cy="555.84" fill="#132e65"></circle><circle r="5" cx="1555.14" cy="-46.22" fill="#132e65"></circle><circle r="5" cx="1612.06" cy="57.73" fill="#132e65"></circle><circle r="5" cx="1603.73" cy="249.47" fill="#132e65"></circle><circle r="5" cx="1597.18" cy="376.23" fill="#132e65"></circle><circle r="5" cx="1605.96" cy="510.7" fill="#132e65"></circle><circle r="5" cx="1541.34" cy="662.16" fill="#132e65"></circle><path d="M64.24 535.47L64.24 535.47" stroke="hsl(228.5, 77.2%, 51.5%)" stroke-width="1.5"></path><path d="M64.24 535.47L-59.5 515.85" stroke="hsl(228.5, 77.2%, 51.5%)" stroke-width="1.5"></path><path d="M64.24 535.47L64.86 707.35" stroke="hsl(228.5, 77.2%, 51.5%)" stroke-width="1.5"></path><path d="M64.24 535.47L234.92 493.81" stroke="hsl(228.5, 77.2%, 51.5%)" stroke-width="1.5"></path><path d="M64.24 535.47L220.87 710.49" stroke="hsl(228.5, 77.2%, 51.5%)" stroke-width="1.5"></path><path d="M64.24 535.47L342.47 671.64" stroke="hsl(228.5, 77.2%, 51.5%)" stroke-width="1.5"></path><path d="M64.24 535.47L408.21 531.55" stroke="hsl(228.5, 77.2%, 51.5%)" stroke-width="1.5"></path><path d="M234.92 493.81L234.92 493.81" stroke="hsl(228.5, 77.2%, 51.5%)" stroke-width="1.5"></path><path d="M234.92 493.81L408.21 531.55" stroke="hsl(228.5, 77.2%, 51.5%)" stroke-width="1.5"></path><path d="M234.92 493.81L342.47 671.64" stroke="hsl(228.5, 77.2%, 51.5%)" stroke-width="1.5"></path><path d="M234.92 493.81L220.87 710.49" stroke="hsl(228.5, 77.2%, 51.5%)" stroke-width="1.5"></path><path d="M234.92 493.81L64.86 707.35" stroke="hsl(228.5, 77.2%, 51.5%)" stroke-width="1.5"></path><path d="M508.52 492.62L508.52 492.62" stroke="hsl(228.5, 77.2%, 51.5%)" stroke-width="1.5"></path><path d="M508.52 492.62L408.21 531.55" stroke="hsl(228.5, 77.2%, 51.5%)" stroke-width="1.5"></path><path d="M508.52 492.62L654.74 531.69" stroke="hsl(228.5, 77.2%, 51.5%)" stroke-width="1.5"></path><path d="M508.52 492.62L501.35 646.76" stroke="hsl(228.5, 77.2%, 51.5%)" stroke-width="1.5"></path><path d="M508.52 492.62L670.71 411.9" stroke="hsl(228.5, 77.2%, 51.5%)" stroke-width="1.5"></path><path d="M508.52 492.62L342.47 671.64" stroke="hsl(228.5, 77.2%, 51.5%)" stroke-width="1.5"></path><path d="M1423.86 -100.79L1423.86 -100.79" stroke="hsl(228.5, 77.2%, 51.5%)" stroke-width="1.5"></path><path d="M1423.86 -100.79L1546.45 -92.29" stroke="hsl(228.5, 77.2%, 51.5%)" stroke-width="1.5"></path><path d="M1423.86 -100.79L1459.92 47.3" stroke="hsl(228.5, 77.2%, 51.5%)" stroke-width="1.5"></path><path d="M1421.16 530.96L1421.16 530.96" stroke="hsl(228.5, 77.2%, 51.5%)" stroke-width="1.5"></path><path d="M1421.16 530.96L1564.37 513.56" stroke="hsl(228.5, 77.2%, 51.5%)" stroke-width="1.5"></path><path d="M1421.16 530.96L1262.3 540.74" stroke="hsl(228.5, 77.2%, 51.5%)" stroke-width="1.5"></path><path d="M1421.16 530.96L1394.62 369.17" stroke="hsl(228.5, 77.2%, 51.5%)" stroke-width="1.5"></path><path d="M1421.16 530.96L1562.76 671.17" stroke="hsl(228.5, 77.2%, 51.5%)" stroke-width="1.5"></path><path d="M1546.45 -92.29L1546.45 -92.29" stroke="hsl(228.5, 77.2%, 51.5%)" stroke-width="1.5"></path><path d="M1546.45 -92.29L1459.92 47.3" stroke="hsl(228.5, 77.2%, 51.5%)" stroke-width="1.5"></path><path d="M1546.45 -92.29L1553.53 104.27" stroke="hsl(228.5, 77.2%, 51.5%)" stroke-width="1.5"></path><path d="M1595.06 380.46L1595.06 380.46" stroke="hsl(228.5, 77.2%, 51.5%)" stroke-width="1.5"></path><path d="M1595.06 380.46L1554.84 253.31" stroke="hsl(228.5, 77.2%, 51.5%)" stroke-width="1.5"></path><path d="M1595.06 380.46L1564.37 513.56" stroke="hsl(228.5, 77.2%, 51.5%)" stroke-width="1.5"></path><path d="M1595.06 380.46L1394.62 369.17" stroke="hsl(228.5, 77.2%, 51.5%)" stroke-width="1.5"></path><path d="M1595.06 380.46L1447.4 226.57" stroke="hsl(228.5, 77.2%, 51.5%)" stroke-width="1.5"></path><path d="M1595.06 380.46L1421.16 530.96" stroke="hsl(228.5, 77.2%, 51.5%)" stroke-width="1.5"></path><path d="M1595.06 380.46L1553.53 104.27" stroke="hsl(228.5, 77.2%, 51.5%)" stroke-width="1.5"></path><path d="M-59.5 515.85L-59.5 515.85" stroke="hsl(228.5, 77.2%, 51.5%)" stroke-width="1.5"></path><path d="M-59.5 515.85L64.86 707.35" stroke="hsl(228.5, 77.2%, 51.5%)" stroke-width="1.5"></path><path d="M64.86 707.35L64.86 707.35" stroke="hsl(228.5, 77.2%, 51.5%)" stroke-width="1.5"></path><path d="M64.86 707.35L220.87 710.49" stroke="hsl(228.5, 77.2%, 51.5%)" stroke-width="1.5"></path><path d="M220.87 710.49L220.87 710.49" stroke="hsl(228.5, 77.2%, 51.5%)" stroke-width="1.5"></path><path d="M220.87 710.49L342.47 671.64" stroke="hsl(228.5, 77.2%, 51.5%)" stroke-width="1.5"></path><path d="M220.87 710.49L408.21 531.55" stroke="hsl(228.5, 77.2%, 51.5%)" stroke-width="1.5"></path><path d="M408.21 531.55L408.21 531.55" stroke="hsl(228.5, 77.2%, 51.5%)" stroke-width="1.5"></path><path d="M408.21 531.55L501.35 646.76" stroke="hsl(228.5, 77.2%, 51.5%)" stroke-width="1.5"></path><path d="M408.21 531.55L342.47 671.64" stroke="hsl(228.5, 77.2%, 51.5%)" stroke-width="1.5"></path><path d="M342.47 671.64L342.47 671.64" stroke="hsl(228.5, 77.2%, 51.5%)" stroke-width="1.5"></path><path d="M501.35 646.76L501.35 646.76" stroke="hsl(228.5, 77.2%, 51.5%)" stroke-width="1.5"></path><path d="M670.71 411.9L670.71 411.9" stroke="hsl(228.5, 77.2%, 51.5%)" stroke-width="1.5"></path><path d="M670.71 411.9L654.74 531.69" stroke="hsl(228.5, 77.2%, 51.5%)" stroke-width="1.5"></path><path d="M654.74 531.69L654.74 531.69" stroke="hsl(228.5, 77.2%, 51.5%)" stroke-width="1.5"></path><path d="M654.74 531.69L797.14 544.59" stroke="hsl(228.5, 77.2%, 51.5%)" stroke-width="1.5"></path><path d="M655.63 701.86L655.63 701.86" stroke="hsl(228.5, 77.2%, 51.5%)" stroke-width="1.5"></path><path d="M655.63 701.86L795.48 640.76" stroke="hsl(228.5, 77.2%, 51.5%)" stroke-width="1.5"></path><path d="M655.63 701.86L501.35 646.76" stroke="hsl(228.5, 77.2%, 51.5%)" stroke-width="1.5"></path><path d="M855.5 391.65L855.5 391.65" stroke="hsl(228.5, 77.2%, 51.5%)" stroke-width="1.5"></path><path d="M855.5 391.65L1002.3 400.18" stroke="hsl(228.5, 77.2%, 51.5%)" stroke-width="1.5"></path><path d="M855.5 391.65L797.14 544.59" stroke="hsl(228.5, 77.2%, 51.5%)" stroke-width="1.5"></path><path d="M797.14 544.59L797.14 544.59" stroke="hsl(228.5, 77.2%, 51.5%)" stroke-width="1.5"></path><path d="M797.14 544.59L795.48 640.76" stroke="hsl(228.5, 77.2%, 51.5%)" stroke-width="1.5"></path><path d="M797.14 544.59L670.71 411.9" stroke="hsl(228.5, 77.2%, 51.5%)" stroke-width="1.5"></path><path d="M797.14 544.59L1004.69 504.52" stroke="hsl(228.5, 77.2%, 51.5%)" stroke-width="1.5"></path><path d="M795.48 640.76L795.48 640.76" stroke="hsl(228.5, 77.2%, 51.5%)" stroke-width="1.5"></path><path d="M1002.3 400.18L1002.3 400.18" stroke="hsl(228.5, 77.2%, 51.5%)" stroke-width="1.5"></path><path d="M1002.3 400.18L1004.69 504.52" stroke="hsl(228.5, 77.2%, 51.5%)" stroke-width="1.5"></path><path d="M1004.69 504.52L1004.69 504.52" stroke="hsl(228.5, 77.2%, 51.5%)" stroke-width="1.5"></path><path d="M1004.69 504.52L1132.54 554.25" stroke="hsl(228.5, 77.2%, 51.5%)" stroke-width="1.5"></path><path d="M1004.69 504.52L997.87 668.86" stroke="hsl(228.5, 77.2%, 51.5%)" stroke-width="1.5"></path><path d="M1004.69 504.52L855.5 391.65" stroke="hsl(228.5, 77.2%, 51.5%)" stroke-width="1.5"></path><path d="M997.87 668.86L997.87 668.86" stroke="hsl(228.5, 77.2%, 51.5%)" stroke-width="1.5"></path><path d="M997.87 668.86L1134.45 698.39" stroke="hsl(228.5, 77.2%, 51.5%)" stroke-width="1.5"></path><path d="M997.87 668.86L1132.54 554.25" stroke="hsl(228.5, 77.2%, 51.5%)" stroke-width="1.5"></path><path d="M997.87 668.86L795.48 640.76" stroke="hsl(228.5, 77.2%, 51.5%)" stroke-width="1.5"></path><path d="M997.87 668.86L797.14 544.59" stroke="hsl(228.5, 77.2%, 51.5%)" stroke-width="1.5"></path><path d="M997.87 668.86L1002.3 400.18" stroke="hsl(228.5, 77.2%, 51.5%)" stroke-width="1.5"></path><path d="M1132.79 256.71L1132.79 256.71" stroke="hsl(228.5, 77.2%, 51.5%)" stroke-width="1.5"></path><path d="M1132.79 256.71L1161.2 354.65" stroke="hsl(228.5, 77.2%, 51.5%)" stroke-width="1.5"></path><path d="M1132.79 256.71L1239.09 191.95" stroke="hsl(228.5, 77.2%, 51.5%)" stroke-width="1.5"></path><path d="M1161.2 354.65L1161.2 354.65" stroke="hsl(228.5, 77.2%, 51.5%)" stroke-width="1.5"></path><path d="M1161.2 354.65L1248.86 379.48" stroke="hsl(228.5, 77.2%, 51.5%)" stroke-width="1.5"></path><path d="M1161.2 354.65L1002.3 400.18" stroke="hsl(228.5, 77.2%, 51.5%)" stroke-width="1.5"></path><path d="M1132.54 554.25L1132.54 554.25" stroke="hsl(228.5, 77.2%, 51.5%)" stroke-width="1.5"></path><path d="M1132.54 554.25L1262.3 540.74" stroke="hsl(228.5, 77.2%, 51.5%)" stroke-width="1.5"></path><path d="M1132.54 554.25L1134.45 698.39" stroke="hsl(228.5, 77.2%, 51.5%)" stroke-width="1.5"></path><path d="M1134.45 698.39L1134.45 698.39" stroke="hsl(228.5, 77.2%, 51.5%)" stroke-width="1.5"></path><path d="M1134.45 698.39L1269.37 673.98" stroke="hsl(228.5, 77.2%, 51.5%)" stroke-width="1.5"></path><path d="M1134.45 698.39L1262.3 540.74" stroke="hsl(228.5, 77.2%, 51.5%)" stroke-width="1.5"></path><path d="M1134.45 698.39L1004.69 504.52" stroke="hsl(228.5, 77.2%, 51.5%)" stroke-width="1.5"></path><path d="M1294.91 44.01L1294.91 44.01" stroke="hsl(228.5, 77.2%, 51.5%)" stroke-width="1.5"></path><path d="M1294.91 44.01L1239.09 191.95" stroke="hsl(228.5, 77.2%, 51.5%)" stroke-width="1.5"></path><path d="M1294.91 44.01L1459.92 47.3" stroke="hsl(228.5, 77.2%, 51.5%)" stroke-width="1.5"></path><path d="M1294.91 44.01L1423.86 -100.79" stroke="hsl(228.5, 77.2%, 51.5%)" stroke-width="1.5"></path><path d="M1239.09 191.95L1239.09 191.95" stroke="hsl(228.5, 77.2%, 51.5%)" stroke-width="1.5"></path><path d="M1248.86 379.48L1248.86 379.48" stroke="hsl(228.5, 77.2%, 51.5%)" stroke-width="1.5"></path><path d="M1248.86 379.48L1394.62 369.17" stroke="hsl(228.5, 77.2%, 51.5%)" stroke-width="1.5"></path><path d="M1248.86 379.48L1262.3 540.74" stroke="hsl(228.5, 77.2%, 51.5%)" stroke-width="1.5"></path><path d="M1262.3 540.74L1262.3 540.74" stroke="hsl(228.5, 77.2%, 51.5%)" stroke-width="1.5"></path><path d="M1262.3 540.74L1269.37 673.98" stroke="hsl(228.5, 77.2%, 51.5%)" stroke-width="1.5"></path><path d="M1269.37 673.98L1269.37 673.98" stroke="hsl(228.5, 77.2%, 51.5%)" stroke-width="1.5"></path><path d="M1459.92 47.3L1459.92 47.3" stroke="hsl(228.5, 77.2%, 51.5%)" stroke-width="1.5"></path><path d="M1459.92 47.3L1553.53 104.27" stroke="hsl(228.5, 77.2%, 51.5%)" stroke-width="1.5"></path><path d="M1447.4 226.57L1447.4 226.57" stroke="hsl(228.5, 77.2%, 51.5%)" stroke-width="1.5"></path><path d="M1447.4 226.57L1554.84 253.31" stroke="hsl(228.5, 77.2%, 51.5%)" stroke-width="1.5"></path><path d="M1447.4 226.57L1394.62 369.17" stroke="hsl(228.5, 77.2%, 51.5%)" stroke-width="1.5"></path><path d="M1447.4 226.57L1553.53 104.27" stroke="hsl(228.5, 77.2%, 51.5%)" stroke-width="1.5"></path><path d="M1394.62 369.17L1394.62 369.17" stroke="hsl(228.5, 77.2%, 51.5%)" stroke-width="1.5"></path><path d="M1553.53 104.27L1553.53 104.27" stroke="hsl(228.5, 77.2%, 51.5%)" stroke-width="1.5"></path><path d="M1553.53 104.27L1554.84 253.31" stroke="hsl(228.5, 77.2%, 51.5%)" stroke-width="1.5"></path><path d="M1553.53 104.27L1423.86 -100.79" stroke="hsl(228.5, 77.2%, 51.5%)" stroke-width="1.5"></path><path d="M1553.53 104.27L1294.91 44.01" stroke="hsl(228.5, 77.2%, 51.5%)" stroke-width="1.5"></path><path d="M1554.84 253.31L1554.84 253.31" stroke="hsl(228.5, 77.2%, 51.5%)" stroke-width="1.5"></path><path d="M1554.84 253.31L1394.62 369.17" stroke="hsl(228.5, 77.2%, 51.5%)" stroke-width="1.5"></path><path d="M1554.84 253.31L1459.92 47.3" stroke="hsl(228.5, 77.2%, 51.5%)" stroke-width="1.5"></path><path d="M1554.84 253.31L1564.37 513.56" stroke="hsl(228.5, 77.2%, 51.5%)" stroke-width="1.5"></path><path d="M1564.37 513.56L1564.37 513.56" stroke="hsl(228.5, 77.2%, 51.5%)" stroke-width="1.5"></path><path d="M1564.37 513.56L1562.76 671.17" stroke="hsl(228.5, 77.2%, 51.5%)" stroke-width="1.5"></path><path d="M1564.37 513.56L1394.62 369.17" stroke="hsl(228.5, 77.2%, 51.5%)" stroke-width="1.5"></path><path d="M1562.76 671.17L1562.76 671.17" stroke="hsl(228.5, 77.2%, 51.5%)" stroke-width="1.5"></path><path d="M1562.76 671.17L1595.06 380.46" stroke="hsl(228.5, 77.2%, 51.5%)" stroke-width="1.5"></path><path d="M1562.76 671.17L1269.37 673.98" stroke="hsl(228.5, 77.2%, 51.5%)" stroke-width="1.5"></path><path d="M1562.76 671.17L1262.3 540.74" stroke="hsl(228.5, 77.2%, 51.5%)" stroke-width="1.5"></path><circle r="25" cx="64.24" cy="535.47" fill="url(&quot;#SvgjsRadialGradient1001&quot;)"></circle><circle r="25" cx="234.92" cy="493.81" fill="url(&quot;#SvgjsRadialGradient1001&quot;)"></circle><circle r="25" cx="508.52" cy="492.62" fill="url(&quot;#SvgjsRadialGradient1001&quot;)"></circle><circle r="25" cx="1423.86" cy="-100.79" fill="url(&quot;#SvgjsRadialGradient1001&quot;)"></circle><circle r="25" cx="1421.16" cy="530.96" fill="url(&quot;#SvgjsRadialGradient1001&quot;)"></circle><circle r="25" cx="1546.45" cy="-92.29" fill="url(&quot;#SvgjsRadialGradient1001&quot;)"></circle><circle r="25" cx="1595.06" cy="380.46" fill="url(&quot;#SvgjsRadialGradient1001&quot;)"></circle><circle r="5" cx="-59.5" cy="515.85" fill="#8b9ad9"></circle><circle r="5" cx="64.86" cy="707.35" fill="#8b9ad9"></circle><circle r="5" cx="220.87" cy="710.49" fill="#8b9ad9"></circle><circle r="5" cx="408.21" cy="531.55" fill="#8b9ad9"></circle><circle r="5" cx="342.47" cy="671.64" fill="#8b9ad9"></circle><circle r="5" cx="501.35" cy="646.76" fill="#8b9ad9"></circle><circle r="5" cx="670.71" cy="411.9" fill="#8b9ad9"></circle><circle r="5" cx="654.74" cy="531.69" fill="#8b9ad9"></circle><circle r="5" cx="655.63" cy="701.86" fill="#8b9ad9"></circle><circle r="5" cx="855.5" cy="391.65" fill="#8b9ad9"></circle><circle r="5" cx="797.14" cy="544.59" fill="#8b9ad9"></circle><circle r="5" cx="795.48" cy="640.76" fill="#8b9ad9"></circle><circle r="5" cx="1002.3" cy="400.18" fill="#8b9ad9"></circle><circle r="5" cx="1004.69" cy="504.52" fill="#8b9ad9"></circle><circle r="5" cx="997.87" cy="668.86" fill="#8b9ad9"></circle><circle r="5" cx="1132.79" cy="256.71" fill="#8b9ad9"></circle><circle r="5" cx="1161.2" cy="354.65" fill="#8b9ad9"></circle><circle r="5" cx="1132.54" cy="554.25" fill="#8b9ad9"></circle><circle r="5" cx="1134.45" cy="698.39" fill="#8b9ad9"></circle><circle r="5" cx="1294.91" cy="44.01" fill="#8b9ad9"></circle><circle r="5" cx="1239.09" cy="191.95" fill="#8b9ad9"></circle><circle r="5" cx="1248.86" cy="379.48" fill="#8b9ad9"></circle><circle r="5" cx="1262.3" cy="540.74" fill="#8b9ad9"></circle><circle r="5" cx="1269.37" cy="673.98" fill="#8b9ad9"></circle><circle r="5" cx="1459.92" cy="47.3" fill="#8b9ad9"></circle><circle r="5" cx="1447.4" cy="226.57" fill="#8b9ad9"></circle><circle r="5" cx="1394.62" cy="369.17" fill="#8b9ad9"></circle><circle r="5" cx="1553.53" cy="104.27" fill="#8b9ad9"></circle><circle r="5" cx="1554.84" cy="253.31" fill="#8b9ad9"></circle><circle r="5" cx="1564.37" cy="513.56" fill="#8b9ad9"></circle><circle r="5" cx="1562.76" cy="671.17" fill="#8b9ad9"></circle></g><defs><mask id="SvgjsMask1000"><rect width="1440" height="560" fill="#ffffff"></rect></mask><radialGradient id="SvgjsRadialGradient1001"><stop stop-color="#ffffff" offset="0.1"></stop><stop stop-color="#1735b3" offset="0.2"></stop><stop stop-color="rgba(23, 53, 179, 0)" offset="1"></stop></radialGradient></defs></svg>